<svg xmlns="http://www.w3.org/2000/svg" viewBox="0 0 64.29 64.29"><defs><style>.cls-1{fill:#58595b;}</style></defs><title>Ресурс 21</title><g id="Слой_2" data-name="Слой 2"><g id="Icons"><path class="cls-1" d="M54.43,61.67H9.86a1.31,1.31,0,1,0,0,2.62H54.43a1.31,1.31,0,1,0,0-2.62Z"/><path class="cls-1" d="M63,56.18H48.64V10.73A1.31,1.31,0,0,0,48,9.62L32.84.2l0,0a1.32,1.32,0,0,0-.25-.11l-.08,0a1.19,1.19,0,0,0-.65,0l-.08,0a1.33,1.33,0,0,0-.25.11l0,0L16.27,9.62a1.31,1.31,0,0,0-.62,1.11V56.18H1.31a1.31,1.31,0,0,0,0,2.62H63a1.31,1.31,0,0,0,0-2.62Zm-32.14,0H18.27V11.46l12.56-7.8Zm2.62,0V51.6l7.37,4.57Zm12.56,0H45.8L33.46,48.52v-4.9L46,51.41Zm0-7.85-12.56-7.8v-4.9L46,43.42Zm0-8-12.56-7.8v-4.9L46,35.43Zm0-8-12.56-7.8v-4.9L46,27.44Zm0-8-12.56-7.8v-4.9L46,19.45Zm0-8L33.46,8.57V3.67L46,11.46Z"/></g></g></svg>