<svg xmlns="http://www.w3.org/2000/svg" viewBox="0 0 64.33 55.67"><defs><style>.cls-1{fill:#58595b;}</style></defs><title>Ресурс 51</title><g id="Слой_2" data-name="Слой 2"><g id="Icons"><path class="cls-1" d="M1.31,30.75h7V54.36a1.31,1.31,0,0,0,1.31,1.31H56.79a1.31,1.31,0,0,0,1.31-1.31V31.63H63a1.31,1.31,0,0,0,1.08-2l-15-22A1.31,1.31,0,0,0,48.06,7H45.14V1.31A1.31,1.31,0,0,0,43.83,0H38a1.31,1.31,0,0,0-1.31,1.31V7h-21a1.33,1.33,0,0,0-.29,0l-.09,0-.19.07-.1.05-.08,0-.08.07-.08.07a1.33,1.33,0,0,0-.15.17l0,0L.23,28.7a1.31,1.31,0,0,0,1.08,2Zm23,22.3h-4.5V38.46a3.82,3.82,0,0,1,4.5,0Zm12.42,0h-9.8V37.87a1.31,1.31,0,0,0-.38-.93,6.35,6.35,0,0,0-9,0,1.31,1.31,0,0,0-.38.93V53.05H11V29.84l8.88-13.05L29.55,31a1.31,1.31,0,0,0,1.08.57h6.05Zm18.79,0H39.31V31.62H55.48ZM36.69,9.65v7a1.31,1.31,0,0,0,2.62,0V2.62h3.21V16.7a1.31,1.31,0,1,0,2.62,0v-7h2.22L60.54,29H31.33L21,13.76h0l-2.79-4.1Zm-21,1,2.58,3.8L9,28.13H3.79Z"/><path class="cls-1" d="M33.05,26.58H54.41a1.31,1.31,0,0,0,0-2.62H33.05a1.31,1.31,0,0,0,0,2.62Z"/></g></g></svg>