<svg xmlns="http://www.w3.org/2000/svg" viewBox="0 0 56.03 64.29"><defs><style>.cls-1{fill:#58595b;}</style></defs><title>Ресурс 41</title><g id="Слой_2" data-name="Слой 2"><g id="Icons"><rect class="cls-1" x="17.6" y="28.46" width="2.73" height="2.72" rx="0.93" ry="0.93"/><rect class="cls-1" x="21.25" y="32.12" width="2.72" height="2.72" rx="0.93" ry="0.93"/><rect class="cls-1" x="21.25" y="28.46" width="2.72" height="2.72" rx="0.93" ry="0.93"/><rect class="cls-1" x="17.6" y="32.12" width="2.73" height="2.72" rx="0.93" ry="0.93"/><rect class="cls-1" x="37.29" y="39.39" width="3" height="3" rx="1.03" ry="1.03"/><rect class="cls-1" x="41.32" y="43.41" width="3" height="3" rx="1.03" ry="1.03"/><rect class="cls-1" x="41.32" y="39.39" width="3" height="3" rx="1.03" ry="1.03"/><rect class="cls-1" x="37.29" y="43.41" width="3" height="3" rx="1.03" ry="1.03"/><rect class="cls-1" x="11.11" y="44.29" width="2.4" height="2.4" rx="0.82" ry="0.82"/><rect class="cls-1" x="14.34" y="47.52" width="2.4" height="2.4" rx="0.82" ry="0.82"/><rect class="cls-1" x="14.34" y="44.29" width="2.4" height="2.4" rx="0.82" ry="0.82"/><rect class="cls-1" x="11.11" y="47.52" width="2.4" height="2.4" rx="0.82" ry="0.82"/><path class="cls-1" d="M.66,48.7l26.7,15.42a1.31,1.31,0,0,0,1.31,0L55.37,48.7A1.31,1.31,0,0,0,56,47.56V16.73a1.31,1.31,0,0,0-.66-1.14L28.67.18a1.31,1.31,0,0,0-1.31,0L.66,15.59A1.31,1.31,0,0,0,0,16.73V47.56A1.31,1.31,0,0,0,.66,48.7ZM28,61.46,5.34,48.37l8.59-8.59,18.9,18.9ZM53.41,46.8,35.18,57.33,24.71,46.86l16.1-16.1,12.6,12.6ZM2.62,17.48,28,2.83,53.41,17.48V39.66L41.73,28a1.31,1.31,0,0,0-1.85,0L35.7,32.16l-14-14a1.35,1.35,0,0,0-1.85,0L2.62,35.41Zm0,21.63L20.79,21,33.84,34l-11,11-8-8A1.31,1.31,0,0,0,13,37L3,47l-.37-.21Z"/></g></g></svg>