<svg xmlns="http://www.w3.org/2000/svg" viewBox="0 0 64.45 52.27"><defs><style>.cls-1{fill:#58595b;}</style></defs><title>Ресурс 31</title><g id="Слой_2" data-name="Слой 2"><g id="Icons"><path class="cls-1" d="M63.14,0H1.31A1.31,1.31,0,0,0,0,1.31v10.8a1.31,1.31,0,0,0,1.31,1.31h4a7.74,7.74,0,0,0,2.1,4.1V51a1.31,1.31,0,0,0,1.31,1.31H55.78A1.31,1.31,0,0,0,57.09,51V17.52a7.73,7.73,0,0,0,2.1-4.1h4a1.31,1.31,0,0,0,1.31-1.31V1.31A1.31,1.31,0,0,0,63.14,0ZM23.65,49.65H15.26V35.53a14.76,14.76,0,0,1,8.39,0Zm30.82,0H26.27v-15a1.31,1.31,0,0,0-.72-1.17c-3.14-1.6-9.07-1.6-12.2,0a1.31,1.31,0,0,0-.72,1.17v15H10V19.28a7.72,7.72,0,0,0,9.36-2.87,7.74,7.74,0,0,0,12.88,0,7.74,7.74,0,0,0,12.88,0,7.72,7.72,0,0,0,9.36,2.87ZM61.83,10.8H58a1.31,1.31,0,0,0-1.31,1.31,5.13,5.13,0,1,1-10.26,0,1.31,1.31,0,1,0-2.62,0,5.13,5.13,0,1,1-10.26,0,1.31,1.31,0,1,0-2.62,0,5.13,5.13,0,0,1-10.26,0,1.31,1.31,0,0,0-2.62,0,5.13,5.13,0,1,1-10.26,0A1.31,1.31,0,0,0,6.46,10.8H2.62V2.62H61.83Z"/><path class="cls-1" d="M50.46,24.93H30.39a1.31,1.31,0,0,0-1.31,1.31V41a1.31,1.31,0,0,0,1.31,1.31H50.46A1.31,1.31,0,0,0,51.77,41V26.24A1.31,1.31,0,0,0,50.46,24.93ZM49.15,39.67H31.7V27.55H49.15Z"/><path class="cls-1" d="M18.24,41.16a1.31,1.31,0,0,0-1.31,1.31v.46a1.31,1.31,0,1,0,2.62,0v-.46A1.31,1.31,0,0,0,18.24,41.16Z"/><path class="cls-1" d="M34.85,32.45H45.66a1.31,1.31,0,1,0,0-2.62H34.85a1.31,1.31,0,1,0,0,2.62Z"/><path class="cls-1" d="M34.85,37.39H45.66a1.31,1.31,0,1,0,0-2.62H34.85a1.31,1.31,0,1,0,0,2.62Z"/><path class="cls-1" d="M12.76,7.95H51.69a1.31,1.31,0,0,0,0-2.62H12.76a1.31,1.31,0,0,0,0,2.62Z"/></g></g></svg>