<svg xmlns="http://www.w3.org/2000/svg" viewBox="0 0 64.57 63.69"><defs><style>.cls-1{fill:#58595b;}</style></defs><title>Ресурс 11</title><g id="Слой_2" data-name="Слой 2"><g id="Icons"><path class="cls-1" d="M60.49.92A1.31,1.31,0,0,0,59.24,0H5.32A1.31,1.31,0,0,0,4.07.92l-4,12.87a1.31,1.31,0,0,0,1.25,1.7H4.42V62.38a1.31,1.31,0,0,0,1.31,1.31H58.83a1.31,1.31,0,0,0,1.31-1.31V15.49h3.12a1.31,1.31,0,0,0,1.19-1.87ZM35,61.07h-5.5V49.52a2.75,2.75,0,1,1,5.5,0Zm22.49,0H37.65V49.52a5.37,5.37,0,1,0-10.74,0V61.07H7V15.49H57.52ZM3.09,12.87,6.29,2.62h52l3.19,10.24Z"/><path class="cls-1" d="M12.13,27.36H18A1.31,1.31,0,0,0,19.27,26V19.74A1.31,1.31,0,0,0,18,18.42H12.13a1.31,1.31,0,0,0-1.31,1.31V26A1.31,1.31,0,0,0,12.13,27.36ZM13.44,21h3.21v3.69H13.44Z"/><path class="cls-1" d="M23.62,27.36h5.84A1.31,1.31,0,0,0,30.76,26V19.74a1.31,1.31,0,0,0-1.31-1.31H23.62a1.31,1.31,0,0,0-1.31,1.31V26A1.31,1.31,0,0,0,23.62,27.36ZM24.93,21h3.21v3.69H24.93Z"/><path class="cls-1" d="M35.11,27.36h5.84A1.31,1.31,0,0,0,42.26,26V19.74a1.31,1.31,0,0,0-1.31-1.31H35.11a1.31,1.31,0,0,0-1.31,1.31V26A1.31,1.31,0,0,0,35.11,27.36ZM36.42,21h3.22v3.69H36.42Z"/><path class="cls-1" d="M46.6,27.36h5.84A1.31,1.31,0,0,0,53.75,26V19.74a1.31,1.31,0,0,0-1.31-1.31H46.6a1.31,1.31,0,0,0-1.31,1.31V26A1.31,1.31,0,0,0,46.6,27.36ZM47.91,21h3.22v3.69H47.91Z"/><path class="cls-1" d="M12.13,41.25H18a1.31,1.31,0,0,0,1.31-1.31V33.63A1.31,1.31,0,0,0,18,32.32H12.13a1.31,1.31,0,0,0-1.31,1.31v6.31A1.31,1.31,0,0,0,12.13,41.25Zm1.31-6.31h3.21v3.69H13.44Z"/><path class="cls-1" d="M23.62,41.25h5.84a1.31,1.31,0,0,0,1.31-1.31V33.63a1.31,1.31,0,0,0-1.31-1.31H23.62a1.31,1.31,0,0,0-1.31,1.31v6.31A1.31,1.31,0,0,0,23.62,41.25Zm1.31-6.31h3.21v3.69H24.93Z"/><path class="cls-1" d="M35.11,41.25h5.84a1.31,1.31,0,0,0,1.31-1.31V33.63a1.31,1.31,0,0,0-1.31-1.31H35.11a1.31,1.31,0,0,0-1.31,1.31v6.31A1.31,1.31,0,0,0,35.11,41.25Zm1.31-6.31h3.22v3.69H36.42Z"/><path class="cls-1" d="M46.6,41.25h5.84a1.31,1.31,0,0,0,1.31-1.31V33.63a1.31,1.31,0,0,0-1.31-1.31H46.6a1.31,1.31,0,0,0-1.31,1.31v6.31A1.31,1.31,0,0,0,46.6,41.25Zm1.31-6.31h3.22v3.69H47.91Z"/><path class="cls-1" d="M12.13,55.15H18a1.31,1.31,0,0,0,1.31-1.31V47.52A1.31,1.31,0,0,0,18,46.21H12.13a1.31,1.31,0,0,0-1.31,1.31v6.31A1.31,1.31,0,0,0,12.13,55.15Zm1.31-6.31h3.21v3.69H13.44Z"/><path class="cls-1" d="M46.6,55.15h5.84a1.31,1.31,0,0,0,1.31-1.31V47.52a1.31,1.31,0,0,0-1.31-1.31H46.6a1.31,1.31,0,0,0-1.31,1.31v6.31A1.31,1.31,0,0,0,46.6,55.15Zm1.31-6.31h3.22v3.69H47.91Z"/><path class="cls-1" d="M53.91,8.56H10.65a1.31,1.31,0,1,0,0,2.62H53.91a1.31,1.31,0,1,0,0-2.62Z"/><path class="cls-1" d="M17.1,6.92H47.47a1.31,1.31,0,0,0,0-2.62H17.1a1.31,1.31,0,0,0,0,2.62Z"/><circle class="cls-1" cx="32.28" cy="53.92" r="1.32"/></g></g></svg>