<svg xmlns="http://www.w3.org/2000/svg" viewBox="0 0 64.29 64.29"><defs><style>.cls-1{fill:#58595b;}</style></defs><title>Ресурс 71</title><g id="Слой_2" data-name="Слой 2"><g id="Icons"><path class="cls-1" d="M54.43,64.29a1.31,1.31,0,1,0,0-2.62H9.86a1.31,1.31,0,1,0,0,2.62Z"/><path class="cls-1" d="M63,56.18h-8.3V39.34A1.31,1.31,0,0,0,54,38.17L40.53,31.34v-30A1.31,1.31,0,0,0,38.63.14L24.47,7.34a1.31,1.31,0,0,0-.72,1.17V21.34L10.32,28.17a1.31,1.31,0,0,0-.72,1.17V56.18H1.31a1.31,1.31,0,0,0,0,2.62H63a1.31,1.31,0,0,0,0-2.62Zm-39.22,0H12.23v-26l11.53-5.86Zm14.15-24h0v24H26.38V9.31L37.91,3.45Zm14.15,24H40.53V34.28l11.53,5.86Z"/><path class="cls-1" d="M44.1,54.35a1,1,0,0,0,1-1V39.08a1,1,0,1,0-2,0V53.37A1,1,0,0,0,44.1,54.35Z"/><path class="cls-1" d="M48.49,54.35a1,1,0,0,0,1-1V43.23a1,1,0,1,0-2,0V53.37A1,1,0,0,0,48.49,54.35Z"/><path class="cls-1" d="M20.19,54.35a1,1,0,0,0,1-1v-24a1,1,0,0,0-2,0v24A1,1,0,0,0,20.19,54.35Z"/><path class="cls-1" d="M15.8,54.35a1,1,0,0,0,1-1V33.55a1,1,0,0,0-2,0V53.37A1,1,0,0,0,15.8,54.35Z"/><path class="cls-1" d="M34.52,54.35a1,1,0,0,0,1-1V8.88a1,1,0,0,0-2,0V53.37A1,1,0,0,0,34.52,54.35Z"/><path class="cls-1" d="M29.77,54.35a1,1,0,0,0,1-1V13.25a1,1,0,1,0-2,0V53.37A1,1,0,0,0,29.77,54.35Z"/></g></g></svg>