<svg xmlns="http://www.w3.org/2000/svg" viewBox="0 0 59.68 64.29"><defs><style>.cls-1{fill:#58595b;}</style></defs><title>Ресурс 91</title><g id="Слой_2" data-name="Слой 2"><g id="Icons"><path class="cls-1" d="M1.31,59.68H58.37a1.31,1.31,0,0,0,0-2.62H44.22V20.89a1.31,1.31,0,0,0-1.31-1.31H37V8a1.31,1.31,0,0,0-1.31-1.31h-4.5V1.31a1.31,1.31,0,1,0-2.62,0V6.69H24A1.31,1.31,0,0,0,22.72,8V19.58h-6a1.31,1.31,0,0,0-1.31,1.31V57.05H1.31a1.31,1.31,0,1,0,0,2.62Zm24-50.36h9V19.58h-9ZM18.08,22.21H41.6V57.05H18.08Z"/><path class="cls-1" d="M10.46,61.67a1.31,1.31,0,1,0,0,2.62H49.22a1.31,1.31,0,1,0,0-2.62Z"/><path class="cls-1" d="M24,24.65A1.31,1.31,0,0,0,22.72,26V53.3a1.31,1.31,0,1,0,2.62,0V26A1.31,1.31,0,0,0,24,24.65Z"/><path class="cls-1" d="M29.84,24.65A1.31,1.31,0,0,0,28.53,26V53.3a1.31,1.31,0,1,0,2.62,0V26A1.31,1.31,0,0,0,29.84,24.65Z"/><path class="cls-1" d="M32.14,11h-4.6a1.31,1.31,0,1,0,0,2.62h4.6a1.31,1.31,0,1,0,0-2.62Z"/><path class="cls-1" d="M32.14,15.15h-4.6a1.31,1.31,0,1,0,0,2.62h4.6a1.31,1.31,0,0,0,0-2.62Z"/><path class="cls-1" d="M35.65,24.65A1.31,1.31,0,0,0,34.34,26V53.3a1.31,1.31,0,1,0,2.62,0V26A1.31,1.31,0,0,0,35.65,24.65Z"/></g></g></svg>