<svg xmlns="http://www.w3.org/2000/svg" viewBox="0 0 64.29 57.1"><defs><style>.cls-1{fill:#58595b;}</style></defs><title>Ресурс 61</title><g id="Слой_2" data-name="Слой 2"><g id="Icons"><rect class="cls-1" x="38.42" y="36.03" width="3.92" height="3.92" rx="1.34" ry="1.34"/><rect class="cls-1" x="43.68" y="41.3" width="3.92" height="3.92" rx="1.34" ry="1.34"/><rect class="cls-1" x="43.68" y="36.03" width="3.92" height="3.92" rx="1.34" ry="1.34"/><rect class="cls-1" x="38.42" y="41.3" width="3.92" height="3.92" rx="1.34" ry="1.34"/><path class="cls-1" d="M63.82,27.43,33,1.35a1.31,1.31,0,0,0-1.69,0l-9.44,8v-8A1.31,1.31,0,0,0,20.55,0H12.19a1.31,1.31,0,0,0-1.31,1.31V18.62L.46,27.43a1.31,1.31,0,0,0,.85,2.31H9.49v26A1.31,1.31,0,0,0,10.8,57.1H53.49a1.31,1.31,0,0,0,1.31-1.31v-26H63a1.31,1.31,0,0,0,.85-2.31ZM13.5,2.62h5.73v8.93L13.5,16.4ZM26,54.48h-5.5V42.82a2.75,2.75,0,1,1,5.5,0Zm26.21,0H28.58V42.82a5.37,5.37,0,1,0-10.74,0V54.48H12.11V29.74H52.18ZM4.89,27.12l27.25-23,27.25,23Z"/><path class="cls-1" d="M16.14,24.28a1,1,0,0,0,1,1h30a1,1,0,0,0,0-2h-30A1,1,0,0,0,16.14,24.28Z"/><path class="cls-1" d="M25.37,17.5a1,1,0,0,0,1,1H37.93a1,1,0,0,0,0-2H26.35A1,1,0,0,0,25.37,17.5Z"/><path class="cls-1" d="M21,20.89a1,1,0,0,0,1,1H42.34a1,1,0,1,0,0-2H22A1,1,0,0,0,21,20.89Z"/></g></g></svg>