<svg xmlns="http://www.w3.org/2000/svg" width="40" height="15" viewBox="0 0 40 15">
  <metadata><?xpacket begin="﻿" id="W5M0MpCehiHzreSzNTczkc9d"?>
<x:xmpmeta xmlns:x="adobe:ns:meta/" x:xmptk="Adobe XMP Core 5.6-c138 79.159824, 2016/09/14-01:09:01        ">
   <rdf:RDF xmlns:rdf="http://www.w3.org/1999/02/22-rdf-syntax-ns#">
      <rdf:Description rdf:about=""/>
   </rdf:RDF>
</x:xmpmeta>
                                                                                                    
                                                                                                    
                                                                                                    
                                                                                                    
                                                                                                    
                                                                                                    
                                                                                                    
                                                                                                    
                                                                                                    
                                                                                                    
                                                                                                    
                                                                                                    
                                                                                                    
                                                                                                    
                                                                                                    
                                                                                                    
                                                                                                    
                                                                                                    
                                                                                                    
                                                                                                    
                           
<?xpacket end="w"?></metadata>
<defs>
    <style>
      .cls-1 {
        fill: #fff;
        fill-rule: evenodd;
      }
    </style>
  </defs>
  <path id="Прямоугольник_1_копия_23" data-name="Прямоугольник 1 копия 23" class="cls-1" d="M1857.5,30a2.5,2.5,0,1,1-2.5,2.5A2.5,2.5,0,0,1,1857.5,30Zm11,0a2.5,2.5,0,1,1-2.5,2.5A2.5,2.5,0,0,1,1868.5,30Zm11,0a2.5,2.5,0,1,1-2.5,2.5A2.5,2.5,0,0,1,1879.5,30Zm-11-10a2.5,2.5,0,1,1-2.5,2.5A2.5,2.5,0,0,1,1868.5,20Zm12,0a2.5,2.5,0,1,1-2.5,2.5A2.5,2.5,0,0,1,1880.5,20Zm12,0a2.5,2.5,0,1,1-2.5,2.5A2.5,2.5,0,0,1,1892.5,20Z" transform="translate(-1855 -20)"/>
</svg>
