<svg xmlns="http://www.w3.org/2000/svg"><defs><style>.cls-1{fill:#58595b}</style><style>.cls-1{fill:#58595b}</style><style>.cls-1{fill:#58595b}</style><style>.cls-1{fill:#58595b}</style><style>.cls-1{fill:#58595b}</style><style>.cls-1{fill:#58595b}</style><style>.cls-1{fill:#58595b}</style><style>.cls-1{fill:#58595b}</style><style>.cls-1{fill:#58595b}</style></defs><symbol id="icon-1" viewBox="0 0 64.29 64.29"><title>&#x420;&#x435;&#x441;&#x443;&#x440;&#x441; 21</title><g id="&#x421;&#x43B;&#x43E;&#x439;_2" data-name="&#x421;&#x43B;&#x43E;&#x439; 2"><g id="Icons"><path class="cls-1" d="M54.43 61.67H9.86a1.31 1.31 0 1 0 0 2.62h44.57a1.31 1.31 0 1 0 0-2.62zM63 56.18H48.64V10.73A1.31 1.31 0 0 0 48 9.62L32.84.2a1.32 1.32 0 0 0-.25-.11h-.08a1.19 1.19 0 0 0-.65 0h-.08a1.33 1.33 0 0 0-.25.11L16.27 9.62a1.31 1.31 0 0 0-.62 1.11v45.45H1.31a1.31 1.31 0 0 0 0 2.62H63a1.31 1.31 0 0 0 0-2.62zm-32.14 0H18.27V11.46l12.56-7.8zm2.62 0V51.6l7.37 4.57zm12.56 0h-.24l-12.34-7.66v-4.9L46 51.41zm0-7.85l-12.56-7.8v-4.9L46 43.42zm0-8l-12.56-7.8v-4.9L46 35.43zm0-8l-12.56-7.8v-4.9L46 27.44zm0-8l-12.56-7.8v-4.9L46 19.45zm0-8L33.46 8.57v-4.9L46 11.46z"/></g></g></symbol><symbol id="icon-2" viewBox="0 0 64.29 64.29"><title>&#x420;&#x435;&#x441;&#x443;&#x440;&#x441; 71</title><g id="&#x421;&#x43B;&#x43E;&#x439;_2" data-name="&#x421;&#x43B;&#x43E;&#x439; 2"><g id="Icons"><path class="cls-1" d="M54.43 64.29a1.31 1.31 0 1 0 0-2.62H9.86a1.31 1.31 0 1 0 0 2.62zM63 56.18h-8.3V39.34a1.31 1.31 0 0 0-.7-1.17l-13.47-6.83v-30a1.31 1.31 0 0 0-1.9-1.2l-14.16 7.2a1.31 1.31 0 0 0-.72 1.17v12.83l-13.43 6.83a1.31 1.31 0 0 0-.72 1.17v26.84H1.31a1.31 1.31 0 0 0 0 2.62H63a1.31 1.31 0 0 0 0-2.62zm-39.22 0H12.23v-26l11.53-5.86zm14.15-24v24H26.38V9.31l11.53-5.86zm14.15 24H40.53v-21.9l11.53 5.86z"/><path class="cls-1" d="M44.1 54.35a1 1 0 0 0 1-1V39.08a1 1 0 1 0-2 0v14.29a1 1 0 0 0 1 .98zM48.49 54.35a1 1 0 0 0 1-1V43.23a1 1 0 1 0-2 0v10.14a1 1 0 0 0 1 .98zM20.19 54.35a1 1 0 0 0 1-1v-24a1 1 0 0 0-2 0v24a1 1 0 0 0 1 1zM15.8 54.35a1 1 0 0 0 1-1v-19.8a1 1 0 0 0-2 0v19.82a1 1 0 0 0 1 .98zM34.52 54.35a1 1 0 0 0 1-1V8.88a1 1 0 0 0-2 0v44.49a1 1 0 0 0 1 .98zM29.77 54.35a1 1 0 0 0 1-1v-40.1a1 1 0 1 0-2 0v40.12a1 1 0 0 0 1 .98z"/></g></g></symbol><symbol id="icon-3" viewBox="0 0 64.57 63.69"><title>&#x420;&#x435;&#x441;&#x443;&#x440;&#x441; 11</title><g id="&#x421;&#x43B;&#x43E;&#x439;_2" data-name="&#x421;&#x43B;&#x43E;&#x439; 2"><g id="Icons"><path class="cls-1" d="M60.49.92A1.31 1.31 0 0 0 59.24 0H5.32a1.31 1.31 0 0 0-1.25.92l-4 12.87a1.31 1.31 0 0 0 1.25 1.7h3.1v46.89a1.31 1.31 0 0 0 1.31 1.31h53.1a1.31 1.31 0 0 0 1.31-1.31V15.49h3.12a1.31 1.31 0 0 0 1.19-1.87zM35 61.07h-5.5V49.52a2.75 2.75 0 1 1 5.5 0zm22.49 0H37.65V49.52a5.37 5.37 0 1 0-10.74 0v11.55H7V15.49h50.52zm-54.4-48.2l3.2-10.25h52l3.19 10.24z"/><path class="cls-1" d="M12.13 27.36H18A1.31 1.31 0 0 0 19.27 26v-6.26A1.31 1.31 0 0 0 18 18.42h-5.87a1.31 1.31 0 0 0-1.31 1.31V26a1.31 1.31 0 0 0 1.31 1.36zM13.44 21h3.21v3.69h-3.21zM23.62 27.36h5.84a1.31 1.31 0 0 0 1.3-1.36v-6.26a1.31 1.31 0 0 0-1.31-1.31h-5.83a1.31 1.31 0 0 0-1.31 1.31V26a1.31 1.31 0 0 0 1.31 1.36zM24.93 21h3.21v3.69h-3.21zM35.11 27.36h5.84A1.31 1.31 0 0 0 42.26 26v-6.26a1.31 1.31 0 0 0-1.31-1.31h-5.84a1.31 1.31 0 0 0-1.31 1.31V26a1.31 1.31 0 0 0 1.31 1.36zM36.42 21h3.22v3.69h-3.22zM46.6 27.36h5.84A1.31 1.31 0 0 0 53.75 26v-6.26a1.31 1.31 0 0 0-1.31-1.31H46.6a1.31 1.31 0 0 0-1.31 1.31V26a1.31 1.31 0 0 0 1.31 1.36zM47.91 21h3.22v3.69h-3.22zM12.13 41.25H18a1.31 1.31 0 0 0 1.31-1.31v-6.31A1.31 1.31 0 0 0 18 32.32h-5.87a1.31 1.31 0 0 0-1.31 1.31v6.31a1.31 1.31 0 0 0 1.31 1.31zm1.31-6.31h3.21v3.69h-3.21zM23.62 41.25h5.84a1.31 1.31 0 0 0 1.31-1.31v-6.31a1.31 1.31 0 0 0-1.31-1.31h-5.84a1.31 1.31 0 0 0-1.31 1.31v6.31a1.31 1.31 0 0 0 1.31 1.31zm1.31-6.31h3.21v3.69h-3.21zM35.11 41.25h5.84a1.31 1.31 0 0 0 1.31-1.31v-6.31a1.31 1.31 0 0 0-1.31-1.31h-5.84a1.31 1.31 0 0 0-1.31 1.31v6.31a1.31 1.31 0 0 0 1.31 1.31zm1.31-6.31h3.22v3.69h-3.22zM46.6 41.25h5.84a1.31 1.31 0 0 0 1.31-1.31v-6.31a1.31 1.31 0 0 0-1.31-1.31H46.6a1.31 1.31 0 0 0-1.31 1.31v6.31a1.31 1.31 0 0 0 1.31 1.31zm1.31-6.31h3.22v3.69h-3.22zM12.13 55.15H18a1.31 1.31 0 0 0 1.31-1.31v-6.32A1.31 1.31 0 0 0 18 46.21h-5.87a1.31 1.31 0 0 0-1.31 1.31v6.31a1.31 1.31 0 0 0 1.31 1.32zm1.31-6.31h3.21v3.69h-3.21zM46.6 55.15h5.84a1.31 1.31 0 0 0 1.31-1.31v-6.32a1.31 1.31 0 0 0-1.31-1.31H46.6a1.31 1.31 0 0 0-1.31 1.31v6.31a1.31 1.31 0 0 0 1.31 1.32zm1.31-6.31h3.22v3.69h-3.22zM53.91 8.56H10.65a1.31 1.31 0 1 0 0 2.62h43.26a1.31 1.31 0 1 0 0-2.62zM17.1 6.92h30.37a1.31 1.31 0 0 0 0-2.62H17.1a1.31 1.31 0 0 0 0 2.62z"/><circle class="cls-1" cx="32.28" cy="53.92" r="1.32"/></g></g></symbol><symbol id="icon-4" viewBox="0 0 64.45 52.27"><title>&#x420;&#x435;&#x441;&#x443;&#x440;&#x441; 31</title><g id="&#x421;&#x43B;&#x43E;&#x439;_2" data-name="&#x421;&#x43B;&#x43E;&#x439; 2"><g id="Icons"><path class="cls-1" d="M63.14 0H1.31A1.31 1.31 0 0 0 0 1.31v10.8a1.31 1.31 0 0 0 1.31 1.31h4a7.74 7.74 0 0 0 2.1 4.1V51a1.31 1.31 0 0 0 1.31 1.31h47.06A1.31 1.31 0 0 0 57.09 51V17.52a7.73 7.73 0 0 0 2.1-4.1h4a1.31 1.31 0 0 0 1.31-1.31V1.31A1.31 1.31 0 0 0 63.14 0zM23.65 49.65h-8.39V35.53a14.76 14.76 0 0 1 8.39 0zm30.82 0h-28.2v-15a1.31 1.31 0 0 0-.72-1.17c-3.14-1.6-9.07-1.6-12.2 0a1.31 1.31 0 0 0-.72 1.17v15H10V19.28a7.72 7.72 0 0 0 9.36-2.87 7.74 7.74 0 0 0 12.88 0 7.74 7.74 0 0 0 12.88 0 7.72 7.72 0 0 0 9.36 2.87zm7.36-38.85H58a1.31 1.31 0 0 0-1.31 1.31 5.13 5.13 0 1 1-10.26 0 1.31 1.31 0 1 0-2.62 0 5.13 5.13 0 1 1-10.26 0 1.31 1.31 0 1 0-2.62 0 5.13 5.13 0 0 1-10.26 0 1.31 1.31 0 0 0-2.62 0 5.13 5.13 0 1 1-10.26 0 1.31 1.31 0 0 0-1.33-1.31H2.62V2.62h59.21z"/><path class="cls-1" d="M50.46 24.93H30.39a1.31 1.31 0 0 0-1.31 1.31V41a1.31 1.31 0 0 0 1.31 1.31h20.07A1.31 1.31 0 0 0 51.77 41V26.24a1.31 1.31 0 0 0-1.31-1.31zm-1.31 14.74H31.7V27.55h17.45zM18.24 41.16a1.31 1.31 0 0 0-1.31 1.31v.46a1.31 1.31 0 1 0 2.62 0v-.46a1.31 1.31 0 0 0-1.31-1.31z"/><path class="cls-1" d="M34.85 32.45h10.81a1.31 1.31 0 1 0 0-2.62H34.85a1.31 1.31 0 1 0 0 2.62zM34.85 37.39h10.81a1.31 1.31 0 1 0 0-2.62H34.85a1.31 1.31 0 1 0 0 2.62zM12.76 7.95h38.93a1.31 1.31 0 0 0 0-2.62H12.76a1.31 1.31 0 0 0 0 2.62z"/></g></g></symbol><symbol id="icon-5" viewBox="0 0 64.33 55.67"><title>&#x420;&#x435;&#x441;&#x443;&#x440;&#x441; 51</title><g id="&#x421;&#x43B;&#x43E;&#x439;_2" data-name="&#x421;&#x43B;&#x43E;&#x439; 2"><g id="Icons"><path class="cls-1" d="M1.31 30.75h7v23.61a1.31 1.31 0 0 0 1.31 1.31h47.17a1.31 1.31 0 0 0 1.31-1.31V31.63H63a1.31 1.31 0 0 0 1.08-2l-15-22A1.31 1.31 0 0 0 48.06 7h-2.92V1.31A1.31 1.31 0 0 0 43.83 0H38a1.31 1.31 0 0 0-1.31 1.31V7h-21a1.33 1.33 0 0 0-.29 0h-.09l-.19.07-.1.05h-.08l-.08.07-.08.07a1.33 1.33 0 0 0-.15.17L.23 28.7a1.31 1.31 0 0 0 1.08 2zm23 22.3h-4.5V38.46a3.82 3.82 0 0 1 4.5 0zm12.42 0h-9.8V37.87a1.31 1.31 0 0 0-.38-.93 6.35 6.35 0 0 0-9 0 1.31 1.31 0 0 0-.38.93v15.18H11V29.84l8.88-13.05L29.55 31a1.31 1.31 0 0 0 1.08.57h6.05zm18.79 0H39.31V31.62h16.17zM36.69 9.65v7a1.31 1.31 0 0 0 2.62 0V2.62h3.21V16.7a1.31 1.31 0 1 0 2.62 0v-7h2.22L60.54 29H31.33L21 13.76l-2.79-4.1zm-21 1l2.58 3.8L9 28.13H3.79z"/><path class="cls-1" d="M33.05 26.58h21.36a1.31 1.31 0 0 0 0-2.62H33.05a1.31 1.31 0 0 0 0 2.62z"/></g></g></symbol><symbol id="icon-6" viewBox="0 0 56.03 64.29"><title>&#x420;&#x435;&#x441;&#x443;&#x440;&#x441; 41</title><g id="&#x421;&#x43B;&#x43E;&#x439;_2" data-name="&#x421;&#x43B;&#x43E;&#x439; 2"><g id="Icons"><rect class="cls-1" x="17.6" y="28.46" width="2.73" height="2.72" rx=".93" ry=".93"/><rect class="cls-1" x="21.25" y="32.12" width="2.72" height="2.72" rx=".93" ry=".93"/><rect class="cls-1" x="21.25" y="28.46" width="2.72" height="2.72" rx=".93" ry=".93"/><rect class="cls-1" x="17.6" y="32.12" width="2.73" height="2.72" rx=".93" ry=".93"/><rect class="cls-1" x="37.29" y="39.39" width="3" height="3" rx="1.03" ry="1.03"/><rect class="cls-1" x="41.32" y="43.41" width="3" height="3" rx="1.03" ry="1.03"/><rect class="cls-1" x="41.32" y="39.39" width="3" height="3" rx="1.03" ry="1.03"/><rect class="cls-1" x="37.29" y="43.41" width="3" height="3" rx="1.03" ry="1.03"/><rect class="cls-1" x="11.11" y="44.29" width="2.4" height="2.4" rx=".82" ry=".82"/><rect class="cls-1" x="14.34" y="47.52" width="2.4" height="2.4" rx=".82" ry=".82"/><rect class="cls-1" x="14.34" y="44.29" width="2.4" height="2.4" rx=".82" ry=".82"/><rect class="cls-1" x="11.11" y="47.52" width="2.4" height="2.4" rx=".82" ry=".82"/><path class="cls-1" d="M.66 48.7l26.7 15.42a1.31 1.31 0 0 0 1.31 0l26.7-15.42a1.31 1.31 0 0 0 .63-1.14V16.73a1.31 1.31 0 0 0-.66-1.14L28.67.18a1.31 1.31 0 0 0-1.31 0L.66 15.59A1.31 1.31 0 0 0 0 16.73v30.83a1.31 1.31 0 0 0 .66 1.14zM28 61.46L5.34 48.37l8.59-8.59 18.9 18.9zM53.41 46.8L35.18 57.33 24.71 46.86l16.1-16.1 12.6 12.6zM2.62 17.48L28 2.83l25.41 14.65v22.18L41.73 28a1.31 1.31 0 0 0-1.85 0l-4.18 4.16-14-14a1.35 1.35 0 0 0-1.85 0L2.62 35.41zm0 21.63L20.79 21l13.05 13-11 11-8-8A1.31 1.31 0 0 0 13 37L3 47l-.37-.21z"/></g></g></symbol><symbol id="&#x420;&#x435;&#x441;&#x443;&#x440;&#x441; 61" viewBox="0 0 64.29 57.1"><title>&#x420;&#x435;&#x441;&#x443;&#x440;&#x441; 61</title><g id="&#x421;&#x43B;&#x43E;&#x439;_2" data-name="&#x421;&#x43B;&#x43E;&#x439; 2"><g id="Icons"><rect class="cls-1" x="38.42" y="36.03" width="3.92" height="3.92" rx="1.34" ry="1.34"/><rect class="cls-1" x="43.68" y="41.3" width="3.92" height="3.92" rx="1.34" ry="1.34"/><rect class="cls-1" x="43.68" y="36.03" width="3.92" height="3.92" rx="1.34" ry="1.34"/><rect class="cls-1" x="38.42" y="41.3" width="3.92" height="3.92" rx="1.34" ry="1.34"/><path class="cls-1" d="M63.82 27.43L33 1.35a1.31 1.31 0 0 0-1.69 0l-9.44 8v-8A1.31 1.31 0 0 0 20.55 0h-8.36a1.31 1.31 0 0 0-1.31 1.31v17.31L.46 27.43a1.31 1.31 0 0 0 .85 2.31h8.18v26a1.31 1.31 0 0 0 1.31 1.36h42.69a1.31 1.31 0 0 0 1.31-1.31v-26H63a1.31 1.31 0 0 0 .85-2.31zM13.5 2.62h5.73v8.93L13.5 16.4zM26 54.48h-5.5V42.82a2.75 2.75 0 1 1 5.5 0zm26.21 0H28.58V42.82a5.37 5.37 0 1 0-10.74 0v11.66h-5.73V29.74h40.07zM4.89 27.12l27.25-23 27.25 23z"/><path class="cls-1" d="M16.14 24.28a1 1 0 0 0 1 1h30a1 1 0 0 0 0-2h-30a1 1 0 0 0-1 1zM25.37 17.5a1 1 0 0 0 1 1h11.56a1 1 0 0 0 0-2H26.35a1 1 0 0 0-.98 1zM21 20.89a1 1 0 0 0 1 1h20.34a1 1 0 1 0 0-2H22a1 1 0 0 0-1 1z"/></g></g></symbol><symbol id="&#x420;&#x435;&#x441;&#x443;&#x440;&#x441; 81" viewBox="0 0 64.47 60.49"><title>&#x420;&#x435;&#x441;&#x443;&#x440;&#x441; 81</title><g id="&#x421;&#x43B;&#x43E;&#x439;_2" data-name="&#x421;&#x43B;&#x43E;&#x439; 2"><g id="Icons"><path class="cls-1" d="M1.31 22.45h61.85a1.31 1.31 0 0 0 .59-2.45L32.94.21a1.31 1.31 0 0 0-1.42 0L.6 20a1.31 1.31 0 0 0 .71 2.41zM32.23 2.87l26.45 17H5.78zM58.65 27.53a1.31 1.31 0 0 0 0-2.62H5.89a1.31 1.31 0 0 0 0 2.62h2.53v26.16H5.89a1.31 1.31 0 0 0 0 2.62h52.76a1.31 1.31 0 0 0 0-2.62h-2.6V27.53zM13.39 53.69H11V27.53h2.35zm8.38 0H16V27.53h5.76zm5 0h-2.38V27.53h2.35zm8.38 0h-5.79V27.53h5.76zm5 0h-2.41V27.53h2.35zm8.38 0h-5.82V27.53h5.76zm5 0h-2.44V27.53h2.35zM64.37 59.18a1.31 1.31 0 0 0-1.31-1.31H1.31a1.31 1.31 0 0 0 0 2.62h61.75a1.31 1.31 0 0 0 1.31-1.31z"/></g></g></symbol><symbol id="&#x420;&#x435;&#x441;&#x443;&#x440;&#x441; 91" viewBox="0 0 59.68 64.29"><title>&#x420;&#x435;&#x441;&#x443;&#x440;&#x441; 91</title><g id="&#x421;&#x43B;&#x43E;&#x439;_2" data-name="&#x421;&#x43B;&#x43E;&#x439; 2"><g id="Icons"><path class="cls-1" d="M1.31 59.68h57.06a1.31 1.31 0 0 0 0-2.62H44.22V20.89a1.31 1.31 0 0 0-1.31-1.31H37V8a1.31 1.31 0 0 0-1.31-1.31h-4.5V1.31a1.31 1.31 0 1 0-2.62 0v5.38H24A1.31 1.31 0 0 0 22.72 8v11.58h-6a1.31 1.31 0 0 0-1.31 1.31v36.16H1.31a1.31 1.31 0 1 0 0 2.62zm24-50.36h9v10.26h-9zm-7.23 12.89H41.6v34.84H18.08zM10.46 61.67a1.31 1.31 0 1 0 0 2.62h38.76a1.31 1.31 0 1 0 0-2.62z"/><path class="cls-1" d="M24 24.65A1.31 1.31 0 0 0 22.72 26v27.3a1.31 1.31 0 1 0 2.62 0V26A1.31 1.31 0 0 0 24 24.65zM29.84 24.65A1.31 1.31 0 0 0 28.53 26v27.3a1.31 1.31 0 1 0 2.62 0V26a1.31 1.31 0 0 0-1.31-1.35zM32.14 11h-4.6a1.31 1.31 0 1 0 0 2.62h4.6a1.31 1.31 0 1 0 0-2.62zM32.14 15.15h-4.6a1.31 1.31 0 1 0 0 2.62h4.6a1.31 1.31 0 0 0 0-2.62zM35.65 24.65A1.31 1.31 0 0 0 34.34 26v27.3a1.31 1.31 0 1 0 2.62 0V26a1.31 1.31 0 0 0-1.31-1.35z"/></g></g></symbol></svg>